<svg width="21" height="15" viewBox="0 0 21 15" fill="none" xmlns="http://www.w3.org/2000/svg">
<path fill-rule="evenodd" clip-rule="evenodd" d="M10.3338 3.57391C12.5585 3.574 14.6982 4.4117 16.3105 5.91385C16.4319 6.02982 16.626 6.02836 16.7456 5.91057L17.9062 4.76273C17.9668 4.70299 18.0005 4.62207 18 4.53787C17.9995 4.45367 17.9648 4.37314 17.9035 4.3141C13.6716 0.339759 6.99527 0.339759 2.76334 4.3141C2.70204 4.3731 2.66726 4.4536 2.66669 4.5378C2.66613 4.622 2.69983 4.70295 2.76033 4.76273L3.92128 5.91057C4.04078 6.02853 4.235 6.03 4.35634 5.91385C5.96891 4.4116 8.10882 3.5739 10.3338 3.57391ZM10.3322 7.29946C11.5559 7.29939 12.736 7.75599 13.643 8.58055C13.7657 8.69757 13.959 8.69503 14.0786 8.57483L15.2392 7.39767C15.3003 7.33593 15.3342 7.25216 15.3333 7.16512C15.3325 7.07808 15.2969 6.99503 15.2345 6.93454C12.4722 4.35517 8.19447 4.35517 5.43218 6.93454C5.36979 6.99503 5.33419 7.07812 5.33337 7.16519C5.33255 7.25226 5.36658 7.33601 5.42783 7.39767L6.58808 8.57483C6.70767 8.69503 6.90094 8.69757 7.02363 8.58055C7.93012 7.75653 9.10925 7.29997 10.3322 7.29946ZM12.6666 10.0231C12.6684 10.1085 12.6341 10.1909 12.5718 10.2508L10.557 12.2419C10.498 12.3004 10.4175 12.3333 10.3334 12.3333C10.2494 12.3333 10.1689 12.3004 10.1098 12.2419L8.09474 10.2508C8.03249 10.1908 7.99825 10.1084 8.00009 10.023C8.00194 9.93753 8.03971 9.85661 8.10449 9.79932C9.39119 8.73357 11.2757 8.73357 12.5624 9.79932C12.6271 9.85665 12.6648 9.9376 12.6666 10.0231Z" fill="black"/>
</svg>
